<svg xmlns="http://www.w3.org/2000/svg" width="64" height="64" viewBox="0 0 64 64">
    <g fill="none" fill-rule="evenodd">
        <g fill-rule="nonzero">
            <g>
                <g>
                    <g>
                        <g>
                            <g>
                                <path fill="#FFCF5D" d="M27.104.6l3.09 3.471 4.182-2.024c.897-.435 1.972.01 2.3.952L38.2 7.39l4.639-.27c.995-.059 1.818.764 1.76 1.76l-.27 4.638 4.39 1.526c.94.327 1.386 1.403.952 2.3l-2.025 4.182 3.471 3.09c.745.662.745 1.826 0 2.489l-3.471 3.09 2.025 4.182c.434.897-.011 1.972-.953 2.3L44.33 38.2l.27 4.639c.058.995-.765 1.818-1.76 1.76l-4.639-.27-1.526 4.39c-.327.94-1.402 1.386-2.3.952l-4.182-2.025-3.09 3.471c-.662.745-1.826.745-2.488 0l-3.09-3.471-4.182 2.025c-.897.434-1.973-.011-2.3-.953l-1.526-4.39-4.639.27c-.995.059-1.818-.764-1.76-1.76l.27-4.638L3 36.675c-.941-.327-1.387-1.402-.952-2.3l2.024-4.182-3.47-3.09c-.745-.662-.745-1.826 0-2.488l3.47-3.09-2.024-4.182c-.435-.897.01-1.973.952-2.3l4.39-1.526-.27-4.639c-.059-.995.764-1.818 1.76-1.76l4.638.27L15.043 3c.327-.941 1.403-1.387 2.3-.952l4.182 2.024 3.09-3.47c.662-.745 1.826-.745 2.489 0z" transform="translate(-688 -3004) translate(0 2964) translate(249 40) translate(439) translate(2.857 5.66) translate(3.284)"/>
                                <g fill="#FFB545" transform="translate(-688 -3004) translate(0 2964) translate(249 40) translate(439) translate(2.857 5.66) translate(3.284) translate(7.037 1.876)">
                                    <path d="M44.082 22.738l-3.472-3.09 2.025-4.182c.435-.897-.01-1.972-.952-2.3l-4.39-1.525.27-4.64c.058-.994-.764-1.817-1.76-1.76l-4.638.27-1.526-4.388C29.31.18 28.236-.264 27.339.17l-1.503.728 2.005 5.77c.517 1.485 1.958 2.448 3.528 2.356l2.561-.149-.149 2.562c-.092 1.57.871 3.01 2.357 3.527l2.424.843-1.118 2.309c-.686 1.416-.348 3.115.827 4.161l1.917 1.706-1.917 1.705c-1.175 1.046-1.513 2.745-.827 4.162l1.118 2.309-2.424.842c-1.486.517-2.449 1.957-2.357 3.528l.15 2.561-2.562-.149c-1.571-.09-3.011.871-3.528 2.357L27 43.722l-2.31-1.118c-1.416-.686-3.115-.348-4.16.828l-1.706 1.916-1.706-1.917c-1.046-1.175-2.745-1.513-4.161-.827l-2.31 1.118-.842-2.424c-.517-1.486-1.957-2.447-3.528-2.357l-6.097.355-.097 1.667c-.058.995.765 1.818 1.76 1.76l4.639-.27 1.525 4.39c.328.941 1.403 1.387 2.3.952l4.183-2.024 3.089 3.47c.663.745 1.827.745 2.49 0l3.088-3.47 4.183 2.024c.897.435 1.972-.01 2.3-.952l1.525-4.39 4.64.27c.994.058 1.817-.764 1.76-1.76l-.27-4.639 4.389-1.525c.941-.328 1.387-1.403.952-2.3l-2.025-4.183 3.471-3.089c.745-.662.745-1.826 0-2.489z"/>
                                    <circle cx="18.823" cy="23.983" r="16.739"/>
                                </g>
                            </g>
                            <g fill="#3F5F94">
                                <path d="M4.121 6.216c0 .485-.394.879-.88.879H.897c-.485 0-.879-.394-.879-.88 0-.485.394-.879.88-.879h.293V2.941c-.31.109-.668.04-.915-.208-.344-.343-.344-.9 0-1.243L1.447.317c.252-.252.63-.327.959-.19.328.135.542.456.542.812v4.397h.293c.486 0 .88.394.88.88zM10.402 2.698v1.759c0 1.454-1.183 2.638-2.639 2.638-1.454 0-2.638-1.184-2.638-2.638v-1.76C5.125 1.244 6.31.06 7.763.06c1.455 0 2.639 1.184 2.639 2.639zm-1.759 0c0-.485-.394-.88-.88-.88-.484 0-.879.395-.879.88v1.759c0 .485.395.88.88.88s.88-.395.88-.88v-1.76zM16.685 2.698v1.759c0 1.454-1.183 2.638-2.638 2.638-1.455 0-2.638-1.184-2.638-2.638v-1.76c0-1.454 1.183-2.638 2.638-2.638 1.455 0 2.638 1.184 2.638 2.639zm-1.759 0c0-.485-.394-.88-.88-.88-.484 0-.878.395-.878.88v1.759c0 .485.394.88.879.88s.88-.395.88-.88v-1.76zM22.272 1.365L19.34 6.641c-.16.29-.46.453-.77.453-.144 0-.29-.036-.426-.111-.424-.236-.577-.771-.341-1.196L20.734.511c.236-.425.771-.578 1.196-.342.425.236.577.771.342 1.196zm-4.58-.427c0-.486.394-.88.88-.88.485 0 .879.394.879.88 0 .485-.394.88-.88.88-.485 0-.879-.395-.879-.88zm2.932 5.276c0-.485.393-.879.88-.879.485 0 .879.394.879.88 0 .485-.394.879-.88.879s-.88-.394-.88-.88z" transform="translate(-688 -3004) translate(0 2964) translate(249 40) translate(439) translate(2.857 5.66) translate(17.943 16.184)"/>
                            </g>
                            <g>
                                <path fill="#3F5F94" d="M56.527 10.613H1.759C.788 10.613 0 9.826 0 8.854V1.818C0 .846.788.058 1.76.058h54.767c.971 0 1.759.788 1.759 1.76v7.036c0 .972-.788 1.76-1.76 1.76z" transform="translate(-688 -3004) translate(0 2964) translate(249 40) translate(439) translate(2.857 5.66) translate(0 25.8)"/>
                                <g fill="#FFCF5D">
                                    <path d="M7.078 3.577c0 .94-.366 1.823-1.03 2.487-.665.665-1.549 1.03-2.488 1.03-1.94 0-3.518-1.577-3.518-3.517S1.62.059 3.56.059h.645c.486 0 .88.394.88.88 0 .485-.394.879-.88.879H3.56c-.97 0-1.759.79-1.759 1.759 0 .97.79 1.759 1.759 1.759.47 0 .911-.183 1.244-.515.11-.11.204-.233.28-.365h-.41c-.485 0-.879-.393-.879-.88 0-.485.394-.879.88-.879h1.523c.486 0 .88.394.88.88zM13.76.938v3.184c0 1.64-1.342 2.973-2.99 2.973-1.65 0-2.99-1.334-2.99-2.973V.938c0-.485.393-.879.879-.879.485 0 .88.394.88.88v3.183c0 .67.551 1.214 1.23 1.214.68 0 1.232-.545 1.232-1.214V.938c0-.485.393-.879.88-.879.484 0 .878.394.878.88zM19.332 7.039c-.102.038-.206.056-.309.056-.356 0-.69-.218-.823-.571l-.116-.309h-2.08l-.115.309c-.17.455-.677.685-1.132.515-.455-.17-.686-.678-.515-1.133L16.221.63c.129-.343.457-.57.823-.57.367 0 .695.227.824.57l1.978 5.276c.17.455-.06.962-.514 1.133zm-1.908-2.583l-.38-1.013-.38 1.013h.76zM25.863 5.596c.342.345.34.902-.005 1.244-.172.17-.396.255-.62.255-.226 0-.452-.087-.624-.26l-1.486-1.5h-.47v.88c0 .486-.393.88-.879.88-.485 0-.88-.394-.88-.88V.94c0-.486.394-.88.88-.88h1.715c1.447 0 2.624 1.184 2.624 2.639 0 .858-.41 1.621-1.043 2.103l.788.795zm-1.504-2.899c0-.485-.388-.879-.865-.879h-.835v1.759h.835c.477 0 .865-.395.865-.88zM32.26 7.039c-.102.038-.207.056-.31.056-.355 0-.69-.218-.823-.571l-.115-.309h-2.08l-.115.309c-.171.455-.678.685-1.133.515-.454-.17-.685-.678-.514-1.133L29.148.63c.13-.343.457-.57.824-.57.366 0 .694.227.823.57l1.979 5.276c.17.455-.06.962-.515 1.133zm-1.908-2.583l-.38-1.013-.38 1.013h.76zM39.456.938v5.277c0 .38-.244.718-.606.836-.09.03-.182.044-.274.044-.274 0-.54-.13-.709-.36l-2.28-3.11v2.59c0 .486-.395.88-.88.88-.486 0-.88-.394-.88-.88V.94c0-.38.245-.718.606-.836.362-.118.758.01.983.316l2.28 3.11V.939c0-.486.395-.88.88-.88.486 0 .88.394.88.88zM45.703.938c0 .486-.394.88-.88.88H43.71v4.397c0 .486-.393.88-.879.88s-.88-.394-.88-.88V1.818h-1.113c-.486 0-.88-.394-.88-.88 0-.485.394-.879.88-.879h3.986c.486 0 .88.394.88.88zM50.675 6.215c0 .486-.393.88-.88.88H47.1c-.486 0-.88-.394-.88-.88V.938c0-.485.394-.879.88-.879h2.697c.486 0 .88.394.88.88 0 .485-.394.879-.88.879h-1.818v.88h1.114c.486 0 .88.393.88.879s-.394.88-.88.88h-1.114v.879h1.818c.486 0 .88.393.88.88zM56.133 6.215c0 .486-.394.88-.88.88h-2.697c-.485 0-.88-.394-.88-.88V.938c0-.485.394-.879.88-.879h2.697c.486 0 .88.394.88.88 0 .485-.394.879-.88.879h-1.817v.88h1.114c.485 0 .879.393.879.879s-.394.88-.88.88h-1.113v.879h1.817c.486 0 .88.393.88.88z" transform="translate(-688 -3004) translate(0 2964) translate(249 40) translate(439) translate(2.857 5.66) translate(0 25.8) translate(1.055 1.76)"/>
                                </g>
                            </g>
                        </g>
                    </g>
                </g>
            </g>
        </g>
    </g>
</svg>
