<svg xmlns="http://www.w3.org/2000/svg" width="141" height="32" viewBox="0 0 141 32">
    <g fill="none" fill-rule="evenodd">
        <g>
            <g transform="translate(-110 -1797) translate(110 1797)">
                <rect width="141" height="32" fill="#49C759" rx="3"/>
                <g fill-rule="nonzero">
                    <g>
                        <path fill="#FFF" d="M.427 19.574l1.352-4.916C.945 13.218.507 11.586.507 9.914.51 4.682 4.784.426 10.036.426c2.548 0 4.94.989 6.74 2.782 1.799 1.794 2.789 4.178 2.788 6.713-.002 5.232-4.277 9.49-9.528 9.49h-.004c-1.595-.002-3.162-.4-4.554-1.156l-5.05 1.32zm5.285-3.037l.29.171c1.215.719 2.61 1.099 4.03 1.1h.004c4.365 0 7.917-3.539 7.92-7.887 0-2.108-.823-4.09-2.318-5.58-1.496-1.49-3.484-2.312-5.6-2.313-4.368 0-7.92 3.538-7.922 7.886 0 1.49.418 2.942 1.21 4.197l.19.299-.801 2.91 2.997-.783z" transform="translate(12 6)"/>
                        <path fill="#49C759" d="M.759 19.243l1.305-4.747C1.258 13.107.835 11.531.836 9.916.838 4.867 4.964.758 10.034.758c2.46.001 4.77.955 6.507 2.687 1.737 1.731 2.692 4.033 2.692 6.48-.003 5.05-4.13 9.16-9.199 9.16h-.004c-1.539 0-3.052-.385-4.395-1.114L.759 19.243z" transform="translate(12 6)"/>
                        <g fill="#FFF">
                            <path d="M.035 19.184l1.352-4.917C.553 12.827.114 11.196.115 9.523.117 4.291 4.391.035 9.644.035c2.548.001 4.94.99 6.74 2.783 1.798 1.793 2.789 4.177 2.788 6.713-.002 5.231-4.277 9.488-9.528 9.488h-.005c-1.594 0-3.161-.399-4.553-1.155l-5.05 1.32zm5.285-3.037l.29.17c1.215.72 2.61 1.1 4.03 1.1h.004c4.364 0 7.917-3.538 7.919-7.887 0-2.107-.822-4.089-2.317-5.58-1.496-1.49-3.484-2.312-5.6-2.312-4.368 0-7.92 3.537-7.922 7.886 0 1.49.418 2.941 1.21 4.197l.189.298-.8 2.91 2.997-.782z" transform="translate(12 6) translate(.392 .39)"/>
                            <path d="M7.262 5.556c-.178-.394-.366-.402-.536-.41-.139-.005-.297-.005-.456-.005-.159 0-.417.06-.635.297-.218.237-.833.81-.833 1.978 0 1.167.853 2.294.972 2.453.12.158 1.647 2.629 4.067 3.58 2.011.79 2.42.632 2.857.593.436-.04 1.408-.574 1.607-1.128.198-.553.198-1.028.139-1.127-.06-.099-.219-.158-.457-.277-.238-.118-1.408-.692-1.626-.771-.219-.08-.377-.119-.536.119-.159.237-.615.77-.754.929-.139.158-.278.178-.516.06-.238-.12-1.005-.37-1.914-1.178-.708-.628-1.186-1.404-1.325-1.642-.139-.237-.002-.354.105-.484.192-.233.515-.653.595-.81.08-.159.04-.297-.02-.416s-.522-1.291-.734-1.76z" transform="translate(12 6) translate(.392 .39)"/>
                        </g>
                    </g>
                    <path fill="#FFF" d="M31.558 15.196c2.212 0 4.032-1.274 4.55-3.472l-1.456-.308c-.42 1.582-1.624 2.366-3.094 2.366-1.89 0-3.374-1.498-3.374-3.472s1.484-3.472 3.374-3.472c1.47 0 2.674.784 3.094 2.366l1.456-.42c-.532-2.072-2.338-3.36-4.55-3.36-2.73 0-4.886 2.156-4.886 4.886 0 2.744 2.156 4.886 4.886 4.886zM39.342 15v-3.206c0-1.75.826-2.59 2.072-2.59.994 0 1.652.756 1.652 1.89V15h1.47v-4.2c0-1.736-1.12-2.94-2.786-2.94-1.036 0-1.848.378-2.408 1.05V4.92h-1.456V15h1.456zm10.052.196c1.05 0 1.918-.364 2.52-.994V15h1.456V8.056h-1.456v.798c-.602-.63-1.47-.994-2.52-.994-1.82 0-3.444 1.484-3.444 3.668 0 2.198 1.624 3.668 3.444 3.668zm.238-1.288c-1.274 0-2.268-.91-2.268-2.38 0-1.456.994-2.38 2.268-2.38 1.148 0 2.282.924 2.282 2.38 0 1.47-1.134 2.38-2.282 2.38zm8.848 1.288c.588 0 1.064-.14 1.722-.532l-.448-1.218c-.364.238-.812.378-1.176.378-.686 0-1.148-.42-1.148-1.288V9.26h2.38V8.056h-2.38V5.9h-1.456v2.156h-1.498V9.26h1.498v3.374c0 1.722 1.008 2.562 2.506 2.562zM68.322 15l2.114-6.972 2.1 6.972h1.596l2.814-9.38h-1.582l-2.058 7.07-2.156-7.07h-1.442l-2.156 7.07-2.058-7.07h-1.568l2.8 9.38h1.596zm10.766-8.134c.532 0 .924-.378.924-.896 0-.49-.392-.91-.924-.91-.546 0-.938.42-.938.91 0 .518.392.896.938.896zM79.816 15V8.056H78.36V15h1.456zm5.208.196c.588 0 1.064-.14 1.722-.532l-.448-1.218c-.364.238-.812.378-1.176.378-.686 0-1.148-.42-1.148-1.288V9.26h2.38V8.056h-2.38V5.9h-1.456v2.156H81.02V9.26h1.498v3.374c0 1.722 1.008 2.562 2.506 2.562zM89.378 15v-3.206c0-1.75.826-2.59 2.072-2.59.994 0 1.652.756 1.652 1.89V15h1.47v-4.2c0-1.736-1.12-2.94-2.786-2.94-1.036 0-1.848.378-2.408 1.05V4.92h-1.456V15h1.456zm14.644.196c2.38 0 3.962-1.75 3.962-4.34V5.62h-1.498v5.236c0 1.75-.994 2.898-2.464 2.898-1.54 0-2.548-1.148-2.548-2.898V5.62h-1.498v5.236c0 2.59 1.61 4.34 4.046 4.34zm8.554 0c1.736 0 2.926-.784 2.926-2.24 0-.98-.686-1.638-1.806-1.876l-1.652-.364c-.616-.14-.84-.392-.84-.784 0-.49.378-.91 1.232-.91.896 0 1.47.462 1.582 1.134l1.386-.294c-.252-1.162-1.33-2.002-2.926-2.002-1.666 0-2.744.91-2.744 2.198 0 .98.686 1.624 1.89 1.89l1.512.308c.644.14.938.406.938.826 0 .546-.532.924-1.372.924-.91 0-1.638-.35-1.736-1.176l-1.456.308c.182 1.4 1.512 2.058 3.066 2.058z" transform="translate(12 6)"/>
                </g>
            </g>
        </g>
    </g>
</svg>
