<svg xmlns="http://www.w3.org/2000/svg" width="64" height="64" viewBox="0 0 64 64">
    <g fill="none" fill-rule="evenodd">
        <g fill-rule="nonzero">
            <g>
                <g>
                    <g>
                        <g transform="translate(-1060 -3004) translate(0 2964) translate(249 40) translate(811) translate(6.857 6.259)">
                            <path fill="#FF624B" d="M17.451 13.094l-4.963 2.855c-.786.451-1.06 1.443-.612 2.215l11.606 20.001c.448.772 1.448 1.032 2.234.58l4.963-2.854 5.83 10.047-6.86 3.945c-4.452 2.56-10.119 1.09-12.657-3.284L1.295 19.547C-1.243 15.174.309 9.552 4.76 6.992l6.86-3.945 5.83 10.047z"/>
                            <ellipse cx="27.335" cy="47.314" fill="#FF4B34" rx="1.948" ry="1.947"/>
                            <g fill="#FF4B34">
                                <path d="M29.544 35.182c.448.772 1.448 1.031 2.234.58l.418-.24-1.517-2.615-1.84 1.059.705 1.216zM23.054 43.615L7.357 16.565c-2.538-4.375-.986-9.996 3.466-12.556l2.315-1.331L11.62.064l-6.86 3.945C.309 6.569-1.243 12.19 1.295 16.564l15.697 27.051c2.231 3.845 6.88 5.445 10.996 4.037-2.014-.69-3.792-2.068-4.934-4.037z" transform="translate(0 2.983)"/>
                            </g>
                            <path fill="#FF624B" d="M26.545 38.587l5.614 9.692c.478.824 1.66 1.035 2.639.471l4.646-2.674c1.176-.677 1.664-2.028 1.09-3.017l-5.267-9.094c-.573-.99-1.991-1.243-3.167-.566l-4.646 2.674c-.98.564-1.386 1.69-.909 2.514z"/>
                            <path fill="#FF9079" d="M39.03 44.693c-.054 0-.11-.007-.165-.022-.274-.073-.459-.314-.474-.582l-3.37-5.817c-.176-.306-.072-.697.234-.874.305-.177.697-.073.873.233l3.461 5.975c.1.175.12.385.059.612-.077.286-.335.475-.618.475z"/>
                            <path fill="#FF624B" d="M7.448 5.568l5.614 9.691c.478.825 1.66 1.036 2.64.472l4.645-2.675c1.176-.676 1.664-2.027 1.091-3.016L16.17.945c-.573-.99-1.991-1.243-3.167-.566L8.357 3.054c-.98.564-1.386 1.69-.909 2.514z"/>
                            <path fill="#FF4B34" d="M32.607 38.587c-.477-.824-.07-1.95.91-2.514l2.228-1.283-.478-.826c-.573-.989-1.99-1.243-3.166-.566l-4.646 2.675c-.98.564-1.387 1.69-.91 2.514l5.614 9.691c.478.825 1.66 1.036 2.639.472l2.772-1.596-4.963-8.567zM13.51 5.568c-.477-.825-.07-1.95.91-2.514l2.228-1.283-.478-.826c-.573-.99-1.991-1.243-3.167-.566L8.357 3.054c-.98.564-1.386 1.69-.909 2.514l5.614 9.691c.478.825 1.66 1.036 2.639.472l2.772-1.596-4.962-8.567z"/>
                            <ellipse cx="16.412" cy="5.778" fill="#FF4B34" rx="1.948" ry="1.947"/>
                            <path fill="#FFA730" d="M43.62 8.617c-5.497-5.537-13.574-6.992-20.426-4.35-.832.32-1.214 1.282-.829 2.086l.017.035c.347.724 1.193 1.047 1.942.758 5.736-2.211 12.489-.99 17.097 3.653 6.08 6.125 6.177 15.935.321 22.18l-.778-.785c-.253-.254-.687-.102-.726.254l-.445 4.036c-.03.27.197.498.467.47l4.04-.414c.356-.037.511-.47.259-.724l-.633-.638c7.057-7.44 6.967-19.234-.306-26.561z"/>
                            <path fill="#FFDF74" d="M30.767 19.104c0-2.349-1.592-3.867-4.055-3.867-2.467 0-4.039 1.568-4.103 4.092-.006.235.183.429.418.429h1.725c.225 0 .41-.178.418-.403.024-.658.258-1.76 1.557-1.76.99 0 1.432.49 1.432 1.588 0 1.739-2.072 3.514-4.266 5.393-.373.319-.75.642-1.126.972l-.142.125v1.49c0 .231.187.418.418.418h7.62c.23 0 .417-.187.417-.418v-1.49c0-.23-.187-.417-.418-.417h-2.785c-.381 0-.562-.468-.282-.727 1.586-1.464 3.172-3.229 3.172-5.425zM39.86 22.548v-6.517c0-.23-.187-.418-.418-.418H37.28c-.137 0-.265.067-.343.18l-5.268 7.556c-.049.07-.075.154-.075.24v1.348c0 .23.187.418.418.418h4.839c.231 0 .418.187.418.418v1.546c0 .231.187.419.418.419h1.756c.231 0 .418-.188.418-.419v-1.546c0-.231.187-.418.418-.418h.622c.23 0 .418-.188.418-.418v-1.553c0-.23-.187-.418-.418-.418h-.622c-.23 0-.417-.187-.417-.418zm-2.931.418h-1.3c-.333 0-.532-.372-.347-.65l1.3-1.943c.229-.344.765-.181.765.233v1.942c0 .231-.187.418-.418.418z"/>
                            <g fill="#FFC34C">
                                <path d="M.44 4.522h1.705c-.235 0-.424-.194-.418-.429C1.783 1.87 3.01.391 4.987.07 4.712.025 4.424 0 4.124 0 1.658.001.086 1.57.022 4.093c-.006.235.183.429.418.429zM1.742 11.927v-1.49l.143-.125c.375-.33.752-.653 1.125-.972 2.194-1.88 4.267-3.654 4.267-5.393 0-1.099-.442-1.589-1.432-1.589-.346 0-.615.08-.827.208.378.238.554.688.554 1.38 0 1.74-2.072 3.515-4.267 5.394-.372.319-.75.642-1.125.971l-.142.125v1.49c0 .232.187.419.418.419H2.16c-.23 0-.418-.187-.418-.418z" transform="translate(22.587 15.236)"/>
                            </g>
                            <g fill="#FFC34C">
                                <path d="M1.76 9.381V8.033c0-.086.027-.17.076-.24L7.104.238c.078-.112.206-.18.343-.18H5.742c-.137 0-.265.067-.343.18L.131 7.794c-.049.07-.075.153-.075.239V9.38c0 .23.187.418.418.418H2.18c-.231 0-.418-.187-.418-.418zM7.436 11.764v-1.546c0-.231-.187-.419-.418-.419H5.314c.23 0 .418.188.418.419v1.546c0 .231.187.418.418.418h1.704c-.23 0-.418-.187-.418-.418z" transform="translate(31.537 15.555)"/>
                            </g>
                            <path fill="#FFA730" d="M43.62 8.617c-5.497-5.537-13.574-6.992-20.426-4.35-.832.32-1.214 1.282-.829 2.086l.017.035c.347.724 1.193 1.047 1.942.758 5.736-2.211 12.489-.99 17.097 3.653 6.08 6.125 6.177 15.935.321 22.18l-.778-.785c-.253-.254-.687-.102-.726.254l-.445 4.036c-.03.27.197.498.467.47l4.04-.414c.356-.037.511-.47.259-.724l-.633-.638c7.057-7.44 6.967-19.234-.306-26.561z"/>
                        </g>
                    </g>
                </g>
            </g>
        </g>
    </g>
</svg>
