<svg xmlns="http://www.w3.org/2000/svg" width="64" height="64" viewBox="0 0 64 64">
    <g fill="none" fill-rule="evenodd">
        <g fill-rule="nonzero">
            <g>
                <g>
                    <g>
                        <g>
                            <g>
                                <path fill="#8B9BA9" d="M.067 2.52v10.041h35.712c1.02 0 1.848-.817 1.848-1.826V2.52L18.847.086.067 2.52z" transform="translate(-316 -3004) translate(0 2964) translate(249 40) translate(67) translate(.87 6.857) translate(15.15 30.183)"/>
                                <path fill="#6C7A88" d="M33.932 2.034V8.91H.067v3.651h35.712c1.02 0 1.848-.817 1.848-1.826V2.52l-3.695-.486z" transform="translate(-316 -3004) translate(0 2964) translate(249 40) translate(67) translate(.87 6.857) translate(15.15 30.183)"/>
                            </g>
                            <g>
                                <g>
                                    <path fill="#FF7E40" d="M53.454.096h-33.68c-1.02 0-1.848.818-1.848 1.826V16.16H5.606c-1.729 0-3.226 1.184-3.606 2.85L.602 25.155c-.36 1.578-.54 3.191-.54 4.809v12.78h17.864v-10.04h35.528c1.02 0 1.847-.818 1.847-1.826V1.922c0-1.008-.827-1.826-1.847-1.826z" transform="translate(-316 -3004) translate(0 2964) translate(249 40) translate(67) translate(.87 6.857) translate(.985)"/>
                                    <path fill="#FF6344" d="M60.228 21.212h-4.927v-3.276h2.464c.51 0 .923-.409.923-.913s-.413-.913-.923-.913H55.3v-3.276h3.695c.51 0 .924-.408.924-.912s-.413-.913-.924-.913h-3.695V7.733h4.927c.51 0 .924-.409.924-.913s-.414-.913-.924-.913h-4.927V2.835c0-.614.063-1.294-.249-1.826-.32-.545-.915-.913-1.598-.913h-1.848v28.956h-33.68V16.16h-3.695v16.543H11.46c-2.693 0-5.143 1.043-6.963 2.739H.062v7.302h17.864v-10.04h35.527c.684 0 1.28-.368 1.599-.913.312-.532.25-1.212.25-1.826V28.14h3.694c.51 0 .924-.408.924-.913 0-.504-.413-.912-.924-.912h-3.695v-3.276h4.927c.51 0 .924-.409.924-.913s-.414-.913-.924-.913z" transform="translate(-316 -3004) translate(0 2964) translate(249 40) translate(67) translate(.87 6.857) translate(.985)"/>
                                </g>
                                <path fill="#8B9BA9" d="M.924 42.744h6.761v-3.651H.924c-.51 0-.924.408-.924.912v1.826c0 .504.414.913.924.913z" transform="translate(-316 -3004) translate(0 2964) translate(249 40) translate(67) translate(.87 6.857)"/>
                                <g>
                                    <path fill="#9DC6FB" d="M10.659 0.095L1.813 0.095 0.057 7.813 10.659 7.813z" transform="translate(-316 -3004) translate(0 2964) translate(249 40) translate(67) translate(.87 6.857) translate(4.557 19.716)"/>
                                    <path fill="#80B4FB" d="M7.185 4.162L0.888 4.162 0.057 7.813 10.659 7.813 10.659 0.095 7.185 0.095z" transform="translate(-316 -3004) translate(0 2964) translate(249 40) translate(67) translate(.87 6.857) translate(4.557 19.716)"/>
                                </g>
                            </g>
                            <g transform="translate(-316 -3004) translate(0 2964) translate(249 40) translate(67) translate(.87 6.857) translate(37.32 36.268)">
                                <ellipse cx="6.527" cy="6.476" fill="#4D5967" rx="6.466" ry="6.39"/>
                                <path fill="#35404A" d="M7.85.221c-.759 1.384-.547 3.149.637 4.318l-3.92 3.873c-1.183-1.17-2.969-1.379-4.37-.63.612 2.899 3.218 5.083 6.33 5.083 3.566 0 6.467-2.866 6.467-6.39 0-3.075-2.211-5.65-5.145-6.254z"/>
                                <ellipse cx="6.527" cy="6.476" fill="#E9E3D5" rx="2.771" ry="2.738"/>
                            </g>
                            <g transform="translate(-316 -3004) translate(0 2964) translate(249 40) translate(67) translate(.87 6.857) translate(5.912 36.268)">
                                <ellipse cx="6.533" cy="6.476" fill="#4D5967" rx="6.466" ry="6.39"/>
                                <path fill="#35404A" d="M7.855.221c-.758 1.384-.546 3.149.638 4.318l-3.92 3.873c-1.183-1.17-2.97-1.379-4.37-.63.612 2.899 3.218 5.083 6.33 5.083C10.1 12.865 13 10 13 6.475 13 3.4 10.789.826 7.855.222z"/>
                                <ellipse cx="6.533" cy="6.476" fill="#E9E3D5" rx="2.771" ry="2.738"/>
                            </g>
                            <g transform="translate(-316 -3004) translate(0 2964) translate(249 40) translate(67) translate(.87 6.857) translate(24.756 3.651)">
                                <ellipse cx="12.843" cy="12.784" fill="#4D5967" rx="12.84" ry="12.688"/>
                                <path fill="#35404A" d="M21.922 3.813l-.006.005c-1.338 1.323-1.671 3.336-.846 5.019L8.877 20.932c-1.717-.817-3.764-.51-5.111.821l-.003.003c2.348 2.32 5.601 3.746 9.191 3.715 6.972-.058 12.669-5.688 12.728-12.576.03-3.548-1.412-6.762-3.76-9.082z"/>
                                <g transform="translate(3.695 3.651)">
                                    <ellipse cx="9.148" cy="9.133" fill="#F4EEE0" rx="9.145" ry="9.037"/>
                                    <path fill="#D3CDBF" d="M15.611 2.746c-1.28 1.266-1.762 3.123-1.244 4.838.554 1.837.1 3.91-1.365 5.357-1.465 1.448-3.563 1.897-5.422 1.35-1.735-.513-3.615-.037-4.896 1.229 1.75 1.729 4.203 2.762 6.893 2.64 4.691-.213 8.49-3.967 8.706-8.603.124-2.658-.922-5.082-2.672-6.81z"/>
                                </g>
                                <g fill="#4D5967" transform="translate(10.962 6.45)">
                                    <path d="M5.33 7.247H1.88c-.51 0-.923-.409-.923-.913V.948c0-.504.414-.912.924-.912s.924.408.924.912v4.473H5.33c.51 0 .923.409.923.913s-.413.913-.923.913z"/>
                                    <ellipse cx="1.881" cy="6.334" rx="1.847" ry="1.826"/>
                                </g>
                            </g>
                        </g>
                    </g>
                </g>
            </g>
        </g>
    </g>
</svg>
