<svg xmlns="http://www.w3.org/2000/svg" width="216" height="128" viewBox="0 0 216 128">
    <g fill="none" fill-rule="evenodd">
        <g>
            <g>
                <g>
                    <g>
                        <path fill="#B3B3B3" d="M183 34.024c3.866 0 7 3.134 7 7s-3.134 7-7 7h22c3.866 0 7 3.134 7 7s-3.134 7-7 7h-19c-3.866 0-7 3.134-7 7s3.134 7 7 7h6c3.866 0 7 3.134 7 7s-3.134 7-7 7h-52c-.515 0-1.017-.055-1.5-.16-.483.105-.985.16-1.5.16H46c-3.866 0-7-3.134-7-7s3.134-7 7-7H7c-3.866 0-7-3.134-7-7s3.134-7 7-7h40c3.866 0 7-3.134 7-7s-3.134-7-7-7H22c-3.866 0-7-3.134-7-7s3.134-7 7-7h161zm26 42c3.866 0 7 3.134 7 7s-3.134 7-7 7-7-3.134-7-7 3.134-7 7-7z" opacity=".1" transform="translate(-72 -279) translate(16 279) translate(56) translate(0 8.976)"/>
                        <path fill="#F7F7F7" d="M159.366 22.109L65.054 22.109 86.67 2.466 137.75 2.466z" transform="translate(-72 -279) translate(16 279) translate(56) translate(0 8.976)"/>
                        <path fill="#FFF" d="M139.674 16.215H71.541L86.669 2.466h44.346l9.437 12.165c.498.645.04 1.584-.778 1.584" transform="translate(-72 -279) translate(16 279) translate(56) translate(0 8.976)"/>
                        <path fill="#D9D9D9" d="M68.866 20.636h86.686L137.18 3.94H87.24L68.866 20.636zm90.5 2.947H65.054c-.609 0-1.155-.373-1.375-.941-.22-.568-.067-1.214.383-1.623L85.678 1.376c.271-.246.625-.383.992-.383h51.08c.366 0 .72.137.993.383l21.616 19.643c.448.409.6 1.055.38 1.623-.217.568-.766.941-1.373.941z" transform="translate(-72 -279) translate(16 279) translate(56) translate(0 8.976)"/>
                        <path fill="#F7F7F7" d="M65.055 108.574L159.366 108.574 159.366 22.118 65.055 22.118z" transform="translate(-72 -279) translate(16 279) translate(56) translate(0 8.976)"/>
                        <path fill="#FFF" d="M147.576 96.784H65.054V22.117h84.487V94.82c0 1.085-.88 1.965-1.965 1.965" transform="translate(-72 -279) translate(16 279) translate(56) translate(0 8.976)"/>
                        <path fill="#D9D9D9" d="M66.528 107.1h91.365V23.591H66.528v83.51zm92.838 2.948H65.055c-.816 0-1.474-.66-1.474-1.474V22.118c0-.814.658-1.474 1.474-1.474h94.311c.814 0 1.474.66 1.474 1.474v86.456c0 .813-.66 1.474-1.474 1.474z" transform="translate(-72 -279) translate(16 279) translate(56) translate(0 8.976)"/>
                        <path fill="#F7F7F7" d="M127.929 22.109L96.49 22.109 101.894 2.466 122.526 2.466z" transform="translate(-72 -279) translate(16 279) translate(56) translate(0 8.976)"/>
                        <path fill="#FFF" d="M118.104 22.109L96.49 22.109 101.894 2.466 116.629 2.466z" transform="translate(-72 -279) translate(16 279) translate(56) translate(0 8.976)"/>
                        <path fill="#D9D9D9" d="M98.425 20.636h27.57L121.401 3.94h-18.385l-4.592 16.696zm29.505 2.947H96.49c-.462 0-.894-.214-1.173-.578-.279-.367-.371-.84-.248-1.287l5.404-19.64c.175-.641.756-1.085 1.42-1.085h20.632c.664 0 1.244.444 1.419 1.084l5.403 19.641c.124.447.032.92-.247 1.287-.277.364-.712.578-1.171.578z" transform="translate(-72 -279) translate(16 279) translate(56) translate(0 8.976)"/>
                        <path fill="#F7F7F7" d="M127.929 47.654L112.21 39.794 96.49 47.654 96.49 22.11 127.929 22.11z" transform="translate(-72 -279) translate(16 279) translate(56) translate(0 8.976)"/>
                        <path fill="#FFF" d="M118.104 42.741L112.21 39.794 96.49 47.653 96.49 22.109 118.104 22.109z" transform="translate(-72 -279) translate(16 279) translate(56) translate(0 8.976)"/>
                        <path fill="#D9D9D9" d="M112.21 38.32c.226 0 .45.053.658.155l13.587 6.795V23.583h-28.49V45.27l13.586-6.795c.209-.102.433-.155.659-.155m15.719 10.807c-.224 0-.45-.05-.658-.153L112.21 41.44l-15.061 7.534c-.454.226-.998.2-1.435-.065-.432-.27-.697-.745-.697-1.256V22.11c0-.813.66-1.473 1.473-1.473h31.439c.814 0 1.474.66 1.474 1.473v25.544c0 .511-.266.987-.698 1.256-.24.145-.507.218-.776.218" transform="translate(-72 -279) translate(16 279) translate(56) translate(0 8.976)"/>
                        <path fill="#F7F7F7" d="M118.111 86.958L149.548 86.958 149.548 67.311 118.111 67.311z" transform="translate(-72 -279) translate(16 279) translate(56) translate(0 8.976)"/>
                        <path fill="#FFF" d="M139.724 79.097h-21.612V67.309h23.577v9.823c0 1.087-.878 1.965-1.965 1.965" transform="translate(-72 -279) translate(16 279) translate(56) translate(0 8.976)"/>
                        <path fill="#D9D9D9" d="M119.585 85.484h28.49v-16.7h-28.49v16.7zm29.963 2.948H118.11c-.813 0-1.474-.66-1.474-1.474V67.31c0-.814.66-1.474 1.474-1.474h31.437c.815 0 1.473.66 1.473 1.474v19.647c0 .813-.658 1.474-1.473 1.474zM167.227 76.636c-.813 0-1.473-.658-1.473-1.474V50.041c0-.814.66-1.474 1.473-1.474.814 0 1.474.66 1.474 1.474v25.121c0 .816-.66 1.474-1.474 1.474M167.227 43.656c-.813 0-1.473-.66-1.473-1.474V37.83c0-.814.66-1.474 1.473-1.474.814 0 1.474.66 1.474 1.474v4.352c0 .813-.66 1.474-1.474 1.474M28.227 39.1c-.377 0-.754-.146-1.041-.434L21.29 32.77c-.576-.576-.576-1.507 0-2.083.576-.576 1.507-.576 2.083 0l5.894 5.895c.576.575.576 1.507 0 2.083-.286.288-.664.434-1.04.434" transform="translate(-72 -279) translate(16 279) translate(56) translate(0 8.976)"/>
                        <path fill="#D9D9D9" d="M22.332 39.1c-.377 0-.754-.146-1.041-.434-.576-.576-.576-1.508 0-2.083l5.895-5.895c.575-.576 1.507-.576 2.082 0 .576.576.576 1.507 0 2.083l-5.894 5.895c-.287.288-.664.434-1.042.434M47.367 23.588c-.377 0-.754-.145-1.041-.432l-5.895-5.895c-.575-.576-.575-1.507 0-2.083.576-.577 1.507-.577 2.083 0l5.895 5.895c.576.576.576 1.507 0 2.083-.287.287-.664.432-1.042.432" transform="translate(-72 -279) translate(16 279) translate(56) translate(0 8.976)"/>
                        <path fill="#D9D9D9" d="M41.473 23.588c-.378 0-.755-.145-1.042-.432-.575-.576-.575-1.507 0-2.083l5.895-5.895c.576-.577 1.507-.577 2.083 0 .576.576.576 1.507 0 2.083l-5.895 5.895c-.287.287-.664.432-1.041.432M65.054 9.832c-.378 0-.755-.146-1.042-.433l-5.895-5.894c-.575-.576-.575-1.507 0-2.085.576-.576 1.508-.576 2.083 0l5.895 5.895c.576.577.576 1.509 0 2.084-.287.287-.664.433-1.041.433" transform="translate(-72 -279) translate(16 279) translate(56) translate(0 8.976)"/>
                        <path fill="#D9D9D9" d="M59.159 9.832c-.377 0-.755-.146-1.042-.433-.575-.575-.575-1.507 0-2.084l5.895-5.895c.576-.576 1.507-.576 2.083 0 .576.578.576 1.509 0 2.085L60.2 9.399c-.287.287-.664.433-1.041.433" transform="translate(-72 -279) translate(16 279) translate(56) translate(0 8.976)"/>
                    </g>
                </g>
            </g>
        </g>
    </g>
</svg>
