<svg xmlns="http://www.w3.org/2000/svg" width="28" height="28" viewBox="0 0 28 28">
    <g fill="none" fill-rule="evenodd">
        <g fill="#4D4D4D" fill-rule="nonzero">
            <g>
                <path d="M20.452 2.333c.287 0 .558.136.73.366L24.41 7l.01.014c.015.02.03.043.044.067l.022.04c.011.02.021.04.03.062l.014.032c.01.027.02.055.028.082l.006.026c.006.023.011.047.015.07.009.051.013.103.013.155v15.054c0 1.693-1.372 3.065-3.064 3.065H6.473c-1.692 0-3.064-1.372-3.064-3.065V7.548c0-.05.004-.099.012-.148.017-.104.051-.203.1-.293.021-.037.045-.073.07-.107l-.05.074c.013-.022.028-.043.043-.064L3.59 7l3.226-4.301c.173-.23.444-.366.731-.366zm2.31 6.13H5.237v14.14c0 .594.42 1.09.98 1.209l.122.02.135.007h15.054c.683 0 1.236-.554 1.236-1.237V8.462zm-4.46 2.472c.504 0 .913.41.913.914 0 2.88-2.335 5.216-5.215 5.216s-5.215-2.335-5.215-5.216c0-.504.41-.914.914-.914.505 0 .914.41.914.914 0 1.871 1.516 3.388 3.387 3.388 1.87 0 3.387-1.517 3.387-3.388 0-.504.41-.914.914-.914zm1.693-6.774H8.005L6.148 6.634h15.7l-1.854-2.473z" transform="translate(-1089 -74) translate(1089 74)"/>
            </g>
        </g>
    </g>
</svg>
