<svg xmlns="http://www.w3.org/2000/svg" width="24" height="24" viewBox="0 0 24 24">
    <g fill="none" fill-rule="evenodd">
        <g fill="#B3B3B3" fill-rule="nonzero">
            <g>
                <g>
                    <g>
                        <path d="M15.825 12.66c2.934 0 5.276 2.546 5.383 5.68l.004.226v1.224c0 .52-.396.95-.904 1.004l-.11.006H3.802c-.523 0-.954-.394-1.009-.9l-.006-.11v-1.224c0-3.162 2.274-5.782 5.178-5.902l.209-.005h7.65zm0 1.75h-7.65c-1.918 0-3.535 1.72-3.63 3.946l-.005.21-.001.482H19.46v-.482c0-2.256-1.558-4.044-3.456-4.15l-.179-.005zM12 1.8c2.624 0 4.748 2.136 4.748 4.765 0 2.63-2.124 4.765-4.748 4.765S7.252 9.195 7.252 6.565 9.376 1.8 12 1.8zm0 1.751c-1.654 0-2.996 1.349-2.996 3.014 0 1.666 1.342 3.014 2.996 3.014s2.996-1.348 2.996-3.014c0-1.665-1.342-3.014-2.996-3.014z" transform="translate(-246 -689) translate(0 669) translate(240 12) translate(6 8)"/>
                    </g>
                </g>
            </g>
        </g>
    </g>
</svg>
